<?xml version="1.0" encoding="iso-8859-1"?>
<!-- Generator: Adobe Illustrator 19.0.0, SVG Export Plug-In . SVG Version: 6.00 Build 0)  -->
<svg version="1.1" id="Layer_1" xmlns="http://www.w3.org/2000/svg" xmlns:xlink="http://www.w3.org/1999/xlink" x="0px" y="0px"
	 viewBox="0 0 490 490" style="enable-background:new 0 0 490 490;" xml:space="preserve">
<g id="XMLID_39_">
	<g>
		<g id="XMLID_45_">
			<g>
				<path style="fill:#B3B3B3;" d="M335,125.7v170.8c0,16-23.4,27.9-46.2,27.9c-22.8,0-41.3-12.9-41.3-28.9
					c0-15.9,18.5-28.9,41.3-28.9c3.5,0,3.8,0.101,7.1,0.7v-92.8l-78.1,24.4c0,0,0,131.3,0,131.8c0,16.3-22.3,29.3-45.6,29.3
					S130,346.8,130,330.4c0-16.301,18.9-29.601,42.2-29.601c3.9,0,7.6,0.5,11.1,1.2V173.2L335,125.7z"/>
				<path style="fill:#F2F2F2;" d="M245,55c104.9,0,190,85.1,190,190s-85.1,190-190,190S55,349.9,55,245S140.1,55,245,55z
					 M335,296.5V125.7l-151.7,47.5V302c-3.5-0.7-7.2-1.2-11.1-1.2c-23.3,0-42.2,13.3-42.2,29.601c0,16.399,18.9,29.6,42.2,29.6
					s45.6-13,45.6-29.3c0-0.5,0-131.8,0-131.8l78.1-24.4v92.8c-3.3-0.6-3.6-0.7-7.1-0.7c-22.8,0-41.3,13-41.3,28.9
					c0,16,18.5,28.9,41.3,28.9C311.6,324.4,335,312.5,335,296.5z"/>
				<path style="fill:#7D3DAF;" d="M245,10c129.8,0,235,105.2,235,235S374.8,480,245,480S10,374.8,10,245S115.2,10,245,10z M55,245
					c0,104.9,85.1,190,190,190s190-85.1,190-190S349.9,55,245,55S55,140.1,55,245z"/>
			</g>
			<g>
				<g>
					<path style="fill:#231F20;" d="M245,490c-65.448,0-126.975-25.482-173.246-71.754C25.483,371.975,0,310.448,0,245
						S25.483,118.025,71.754,71.754C118.025,25.482,179.552,0,245,0s126.975,25.482,173.246,71.754
						C464.517,118.025,490,179.552,490,245s-25.483,126.975-71.754,173.246C371.975,464.518,310.448,490,245,490z M245,20
						c-60.106,0-116.61,23.402-159.104,65.896S20,184.895,20,245s23.402,116.61,65.896,159.103C128.39,446.598,184.894,470,245,470
						s116.61-23.402,159.104-65.897C446.598,361.61,470,305.105,470,245s-23.402-116.61-65.896-159.104S305.106,20,245,20z"/>
				</g>
				<g>
					<path style="fill:#231F20;" d="M245,445c-110.28,0-200-89.72-200-200S134.72,45,245,45c52.956,0,102.874,20.509,140.558,57.748
						c37.651,37.207,58.754,86.812,59.421,139.676C444.99,243.276,445,244.138,445,245C445,355.28,355.28,445,245,445z M245,65
						c-99.252,0-180,80.748-180,180s80.748,180,180,180s180-80.748,180-180c0-0.778-0.009-1.556-0.019-2.324
						c-0.601-47.572-19.594-92.214-53.481-125.701C337.583,83.458,292.658,65,245,65z"/>
				</g>
				<g>
					<path style="fill:#231F20;" d="M172.2,370c-29.271,0-52.2-17.395-52.2-39.6c0-22.206,22.929-39.601,52.2-39.601
						c0.365,0,0.731,0.004,1.1,0.011V173.2c0-4.372,2.84-8.236,7.012-9.543l151.7-47.5c3.038-0.951,6.345-0.4,8.909,1.484
						S345,122.517,345,125.7v170.8c0,11.24-6.956,21.408-19.586,28.631c-10.301,5.891-23.646,9.27-36.614,9.27
						c-28.766,0-51.3-17.087-51.3-38.9c0-21.074,21.034-37.737,48.4-38.842v-68.558l-58.1,18.152V330.7
						c0,11.319-6.668,21.708-18.775,29.25C198.773,366.337,185.351,370,172.2,370z M172.2,310.8c-17.153,0-32.2,9.159-32.2,19.601
						c0,10.624,14.746,19.6,32.2,19.6c19.72,0,35.6-10.559,35.6-19.3V198.9c0-4.374,2.843-8.24,7.018-9.545l78.1-24.4
						c3.036-0.949,6.343-0.396,8.906,1.488c2.563,1.884,4.076,4.876,4.076,8.057v92.8c0,2.965-1.316,5.777-3.592,7.677
						s-5.279,2.693-8.196,2.162l-0.631-0.115c-2.32-0.424-2.32-0.424-4.681-0.424c-18.445,0-31.3,9.961-31.3,18.9
						c0,10.068,14.626,18.9,31.3,18.9c19.496,0,36.2-9.843,36.2-17.9V139.311l-131.7,41.237V302c0,2.996-1.343,5.834-3.66,7.733
						c-2.317,1.9-5.365,2.662-8.301,2.072C177.908,311.119,175.004,310.8,172.2,310.8z"/>
				</g>
			</g>
		</g>
	</g>
</g>
<g>
</g>
<g>
</g>
<g>
</g>
<g>
</g>
<g>
</g>
<g>
</g>
<g>
</g>
<g>
</g>
<g>
</g>
<g>
</g>
<g>
</g>
<g>
</g>
<g>
</g>
<g>
</g>
<g>
</g>
</svg>
